<svg width="210" height="46" viewBox="0 0 210 46" fill="none" xmlns="http://www.w3.org/2000/svg">
<path d="M146.479 35V14.28H157.559C161.453 14.28 163.399 16.24 163.399 20.16V35H160.919V19.76C160.919 17.5733 159.826 16.48 157.639 16.48H148.999V35H146.479ZM169.519 29.16V20.16C169.519 16.24 171.479 14.28 175.399 14.28H180.599C184.492 14.28 186.439 16.24 186.439 20.16V25.72H172.039V29.56C172.039 31.72 173.119 32.8 175.279 32.8H185.639V33.96L184.279 35H175.399C171.479 35 169.519 33.0533 169.519 29.16ZM172.039 23.52H183.959V19.76C183.959 17.5733 182.865 16.48 180.679 16.48H175.279C173.119 16.48 172.039 17.5733 172.039 19.76V23.52ZM190.289 14.76L190.569 14.28H192.729L199.169 32.8H200.089L206.529 14.28H208.689L209.009 14.76L198.969 43H196.809L196.489 42.52L199.249 35H197.449L190.289 14.76Z" fill="white"/>
<circle cx="131" cy="23" r="12" fill="#12984E"/>
<circle cx="131" cy="23" r="11.5" stroke="white" stroke-opacity="0.03"/>
<path d="M126.359 28.96V27.4H132.159C132.559 27.4 132.759 27.2 132.759 26.8V25.64C132.759 25.2667 132.592 25.0467 132.259 24.98L128.759 24.28C127.159 23.96 126.359 22.8867 126.359 21.06V20.16C126.359 17.92 127.479 16.8 129.719 16.8H129.799V14.4H132.199V16.8H133.899L135.239 17.84V19.4H129.839C129.439 19.4 129.239 19.6 129.239 20V21.08C129.239 21.4533 129.405 21.6733 129.739 21.74L133.239 22.44C134.839 22.76 135.639 23.8333 135.639 25.66V26.64C135.639 28.88 134.519 30 132.279 30H132.199V32.4H129.799V30H127.699L126.359 28.96Z" fill="white"/>
<path d="M7.56281 35V7.4H11.2828L21.1228 28.28L30.9228 7.4H34.6428V35H32.0028V10.92L22.6028 30.88H19.6028L10.2028 10.92V35H7.56281ZM41.335 29.16V20.16C41.335 16.24 43.295 14.28 47.215 14.28H52.415C56.3083 14.28 58.255 16.24 58.255 20.16V25.72H43.855V29.56C43.855 31.72 44.935 32.8 47.095 32.8H57.455V33.96L56.095 35H47.215C43.295 35 41.335 33.0533 41.335 29.16ZM43.855 23.52H55.775V19.76C55.775 17.5733 54.6817 16.48 52.495 16.48H47.095C44.935 16.48 43.855 17.5733 43.855 19.76V23.52ZM64.3856 29.16V14.28H66.9056V29.56C66.9056 31.72 67.9856 32.8 70.1456 32.8H78.8256V14.28H81.3056V35H70.2656C66.3456 35 64.3856 33.0533 64.3856 29.16ZM88.305 35V7.4H92.025L101.865 28.28L111.665 7.4H115.385V35H112.745V10.92L103.345 30.88H100.345L90.945 10.92V35H88.305Z" fill="white"/>
</svg>
